<svg width="48" height="48" viewBox="0 0 48 48" fill="none" xmlns="http://www.w3.org/2000/svg">
  <!-- Background gradient circle -->
  <circle cx="24" cy="24" r="24" fill="url(#gradient1)"/>
  
  <!-- Geometric crystal/diamond shape representing the gemstone -->
  <g transform="translate(24, 24)">
    <!-- Top facet -->
    <path d="M 0,-16 L 8,-8 L 0,0 L -8,-8 Z" fill="url(#gradient2)" opacity="0.9"/>
    <!-- Left facet -->
    <path d="M -8,-8 L 0,0 L -6,12 L -14,4 Z" fill="url(#gradient3)" opacity="0.8"/>
    <!-- Right facet -->
    <path d="M 8,-8 L 14,4 L 6,12 L 0,0 Z" fill="url(#gradient4)" opacity="0.8"/>
    <!-- Bottom facet -->
    <path d="M 0,0 L 6,12 L 0,16 L -6,12 Z" fill="url(#gradient5)" opacity="0.7"/>
    <!-- Center highlight -->
    <circle cx="0" cy="0" r="3" fill="white" opacity="0.6"/>
  </g>
  
  <!-- Gradients -->
  <defs>
    <linearGradient id="gradient1" x1="0%" y1="0%" x2="100%" y2="100%">
      <stop offset="0%" style="stop-color:#3b82f6;stop-opacity:1" />
      <stop offset="100%" style="stop-color:#8b5cf6;stop-opacity:1" />
    </linearGradient>
    <linearGradient id="gradient2" x1="0%" y1="0%" x2="100%" y2="100%">
      <stop offset="0%" style="stop-color:#60a5fa;stop-opacity:1" />
      <stop offset="100%" style="stop-color:#a78bfa;stop-opacity:1" />
    </linearGradient>
    <linearGradient id="gradient3" x1="0%" y1="0%" x2="100%" y2="100%">
      <stop offset="0%" style="stop-color:#3b82f6;stop-opacity:1" />
      <stop offset="100%" style="stop-color:#6366f1;stop-opacity:1" />
    </linearGradient>
    <linearGradient id="gradient4" x1="0%" y1="0%" x2="100%" y2="100%">
      <stop offset="0%" style="stop-color:#6366f1;stop-opacity:1" />
      <stop offset="100%" style="stop-color:#8b5cf6;stop-opacity:1" />
    </linearGradient>
    <linearGradient id="gradient5" x1="0%" y1="0%" x2="0%" y2="100%">
      <stop offset="0%" style="stop-color:#7c3aed;stop-opacity:1" />
      <stop offset="100%" style="stop-color:#5b21b6;stop-opacity:1" />
    </linearGradient>
  </defs>
</svg>
